<svg width="28" height="24" viewBox="0 0 28 24" fill="none" xmlns="http://www.w3.org/2000/svg">
<path fill-rule="evenodd" clip-rule="evenodd" d="M0.5 6.99953V5.00047C1.82502 5.00047 2.7523 4.67225 3.41405 4.23129C4.08206 3.78616 4.53989 3.18549 4.85557 2.55442C5.17322 1.91944 5.33702 1.27235 5.41986 0.775578C5.46088 0.52956 5.481 0.326732 5.49082 0.18932C5.49572 0.120783 5.49802 0.0690312 5.49909 0.0368946C5.49963 0.0208414 5.49985 0.00973352 5.49995 0.00392718L5.5 0.00115668C5.5 0.00115668 5.5 0.00284272 6.5 0.00284272C7.5 0.00284272 7.5 0.00193325 7.5 0.00193325L7.50005 0.00392718C7.50015 0.00973352 7.50037 0.0208414 7.50091 0.0368946C7.50198 0.0690312 7.50428 0.120783 7.50918 0.18932C7.519 0.326732 7.53912 0.52956 7.58014 0.775578C7.66298 1.27235 7.82678 1.91944 8.14443 2.55442C8.46011 3.18549 8.91794 3.78616 9.58595 4.23129C10.2477 4.67225 11.175 5.00047 12.5 5.00047V6.99953C11.175 6.99953 10.2477 7.32775 9.58595 7.76871C8.91794 8.21384 8.46011 8.81451 8.14443 9.44558C7.82678 10.0806 7.66298 10.7277 7.58014 11.2244C7.53912 11.4704 7.519 11.6733 7.50918 11.8107C7.50428 11.8792 7.50198 11.931 7.50091 11.9631L7.50032 11.9833L7.50005 11.9961L7.5 11.9988C7.5 11.9988 7.5 11.9972 6.5 11.9972C5.5 11.9972 5.5 11.9981 5.5 11.9981L5.49995 11.9961C5.49985 11.9903 5.49963 11.9792 5.49909 11.9631C5.49802 11.931 5.49572 11.8792 5.49082 11.8107C5.481 11.6733 5.46088 11.4704 5.41986 11.2244C5.33702 10.7277 5.17322 10.0806 4.85557 9.44558C4.53989 8.81451 4.08206 8.21384 3.41405 7.76871C2.7523 7.32775 1.82502 6.99953 0.5 6.99953ZM10.4167 24H5L19.0833 0H24.5L10.4167 24ZM18.5 18.7504V20.2496C19.4938 20.2496 20.1892 20.4958 20.6855 20.8265C21.1865 21.1604 21.5299 21.6109 21.7667 22.0842C22.0049 22.5604 22.1278 23.0457 22.1899 23.4183C22.2207 23.6028 22.2358 23.755 22.2431 23.858C22.2468 23.9094 22.2485 23.9482 22.2493 23.9723L22.25 23.9971L22.25 23.9986C22.25 23.9986 22.25 23.9979 23 23.9979C23.75 23.9979 23.75 23.9991 23.75 23.9991L23.75 23.9971L23.7507 23.9723C23.7515 23.9482 23.7532 23.9094 23.7569 23.858C23.7642 23.755 23.7793 23.6028 23.8101 23.4183C23.8722 23.0457 23.9951 22.5604 24.2333 22.0842C24.4701 21.6109 24.8135 21.1604 25.3145 20.8265C25.8108 20.4958 26.5062 20.2496 27.5 20.2496V18.7504C26.5062 18.7504 25.8108 18.5042 25.3145 18.1735C24.8135 17.8396 24.4701 17.3891 24.2333 16.9158C23.9951 16.4396 23.8722 15.9543 23.8101 15.5817C23.7793 15.3972 23.7642 15.245 23.7569 15.142C23.7532 15.0906 23.7515 15.0518 23.7507 15.0277L23.75 15.0029L23.75 15.0014C23.75 15.0014 23.75 15.0021 23 15.0021C22.25 15.0021 22.25 15.0009 22.25 15.0009L22.25 15.0029L22.2493 15.0277C22.2485 15.0518 22.2468 15.0906 22.2431 15.142C22.2358 15.245 22.2207 15.3972 22.1899 15.5817C22.1278 15.9543 22.0049 16.4396 21.7667 16.9158C21.5299 17.3891 21.1865 17.8396 20.6855 18.1735C20.1892 18.5042 19.4938 18.7504 18.5 18.7504Z" fill="url(#paint0_linear_1_9841)"/>
<defs>
<linearGradient id="paint0_linear_1_9841" x1="13.403" y1="0" x2="13.403" y2="24" gradientUnits="userSpaceOnUse">
<stop stop-color="#8FFFFF"/>
<stop offset="1" stop-color="#5B94FE"/>
</linearGradient>
</defs>
</svg>
