<svg width="48" height="336" viewBox="0 0 48 336" fill="none" xmlns="http://www.w3.org/2000/svg">
<mask id="mask0_1_1962" style="mask-type:alpha" maskUnits="userSpaceOnUse" x="0" y="0" width="24" height="24">
<rect width="24" height="24" fill="#D9D9D9"/>
</mask>
<g mask="url(#mask0_1_1962)">
<path d="M5 21C4.45 21 3.97917 20.8042 3.5875 20.4125C3.19583 20.0208 3 19.55 3 19C3 18.45 3.19583 17.9792 3.5875 17.5875C3.97917 17.1958 4.45 17 5 17C5.55 17 6.02083 17.1958 6.4125 17.5875C6.80417 17.9792 7 18.45 7 19C7 19.55 6.80417 20.0208 6.4125 20.4125C6.02083 20.8042 5.55 21 5 21ZM17 21C17 19.05 16.6333 17.2292 15.9 15.5375C15.1667 13.8458 14.1667 12.3667 12.9 11.1C11.6333 9.83333 10.1542 8.83333 8.4625 8.1C6.77083 7.36667 4.95 7 3 7V4C5.36667 4 7.575 4.44167 9.625 5.325C11.675 6.20833 13.475 7.425 15.025 8.975C16.575 10.525 17.7917 12.325 18.675 14.375C19.5583 16.425 20 18.6333 20 21H17ZM11 21C11 19.8833 10.7917 18.8458 10.375 17.8875C9.95833 16.9292 9.38333 16.0833 8.65 15.35C7.91667 14.6167 7.07083 14.0417 6.1125 13.625C5.15417 13.2083 4.11667 13 3 13V10C4.53333 10 5.9625 10.2875 7.2875 10.8625C8.6125 11.4375 9.775 12.225 10.775 13.225C11.775 14.225 12.5625 15.3875 13.1375 16.7125C13.7125 18.0375 14 19.4667 14 21H11Z" fill="#1C1B1F"/>
</g>

<g transform="translate(24,0)">
  <mask id="mask0_1_2985" style="mask-type:alpha" maskUnits="userSpaceOnUse" x="0" y="0" width="24" height="24">
  <rect width="24" height="24" fill="#D9D9D9"/>
  </mask>
  <g mask="url(#mask0_1_2985)">
  <path d="M5 21C4.45 21 3.97917 20.8042 3.5875 20.4125C3.19583 20.0208 3 19.55 3 19C3 18.45 3.19583 17.9792 3.5875 17.5875C3.97917 17.1958 4.45 17 5 17C5.55 17 6.02083 17.1958 6.4125 17.5875C6.80417 17.9792 7 18.45 7 19C7 19.55 6.80417 20.0208 6.4125 20.4125C6.02083 20.8042 5.55 21 5 21ZM17 21C17 19.05 16.6333 17.2292 15.9 15.5375C15.1667 13.8458 14.1667 12.3667 12.9 11.1C11.6333 9.83333 10.1542 8.83333 8.4625 8.1C6.77083 7.36667 4.95 7 3 7V4C5.36667 4 7.575 4.44167 9.625 5.325C11.675 6.20833 13.475 7.425 15.025 8.975C16.575 10.525 17.7917 12.325 18.675 14.375C19.5583 16.425 20 18.6333 20 21H17ZM11 21C11 19.8833 10.7917 18.8458 10.375 17.8875C9.95833 16.9292 9.38333 16.0833 8.65 15.35C7.91667 14.6167 7.07083 14.0417 6.1125 13.625C5.15417 13.2083 4.11667 13 3 13V10C4.53333 10 5.9625 10.2875 7.2875 10.8625C8.6125 11.4375 9.775 12.225 10.775 13.225C11.775 14.225 12.5625 15.3875 13.1375 16.7125C13.7125 18.0375 14 19.4667 14 21H11Z" fill="white"/>
  </g>
</g>

<g transform="translate(0,24)">
  <path fill-rule="evenodd" clip-rule="evenodd" d="M12 3C7.02944 3 3 7.02944 3 12C3 13.7013 3.47205 15.2923 4.29233 16.6493L4.46447 16.4645C5.40215 15.5268 6.67392 15 8 15H16C17.3261 15 18.5979 15.5268 19.5355 16.4645L19.7077 16.6493C20.5279 15.2923 21 13.7013 21 12C21 7.02944 16.9706 3 12 3ZM18.4407 18.2863L18.1213 17.8787C17.5587 17.3161 16.7956 17 16 17H8C7.20435 17 6.44129 17.3161 5.87868 17.8787L5.55928 18.2863C7.19365 19.9605 9.47544 21 12 21C14.5246 21 16.8063 19.9605 18.4407 18.2863ZM1 12C1 5.92487 5.92487 1 12 1C18.0751 1 23 5.92487 23 12C23 18.0751 18.0751 23 12 23C5.92487 23 1 18.0751 1 12ZM12 11C13.1046 11 14 10.1046 14 9C14 7.89543 13.1046 7 12 7C10.8954 7 9.99999 7.89543 9.99999 9C9.99999 10.1046 10.8954 11 12 11ZM12 13C14.2091 13 16 11.2091 16 9C16 6.79086 14.2091 5 12 5C9.79085 5 7.99999 6.79086 7.99999 9C7.99999 11.2091 9.79085 13 12 13Z" fill="#252733"/>
</g>

<g transform="translate(24,24)">
<path fill-rule="evenodd" clip-rule="evenodd" d="M12 3C7.02944 3 3 7.02944 3 12C3 13.7013 3.47205 15.2923 4.29233 16.6493L4.46447 16.4645C5.40215 15.5268 6.67392 15 8 15H16C17.3261 15 18.5979 15.5268 19.5355 16.4645L19.7077 16.6493C20.5279 15.2923 21 13.7013 21 12C21 7.02944 16.9706 3 12 3ZM18.4407 18.2863L18.1213 17.8787C17.5587 17.3161 16.7956 17 16 17H8C7.20435 17 6.44129 17.3161 5.87868 17.8787L5.55928 18.2863C7.19365 19.9605 9.47544 21 12 21C14.5246 21 16.8063 19.9605 18.4407 18.2863ZM1 12C1 5.92487 5.92487 1 12 1C18.0751 1 23 5.92487 23 12C23 18.0751 18.0751 23 12 23C5.92487 23 1 18.0751 1 12ZM12 11C13.1046 11 14 10.1046 14 9C14 7.89543 13.1046 7 12 7C10.8954 7 9.99999 7.89543 9.99999 9C9.99999 10.1046 10.8954 11 12 11ZM12 13C14.2091 13 16 11.2091 16 9C16 6.79086 14.2091 5 12 5C9.79085 5 7.99999 6.79086 7.99999 9C7.99999 11.2091 9.79085 13 12 13Z" fill="#EBECF0"/>
</g>

<g transform="translate(0,48)">
  <path fill-rule="evenodd" clip-rule="evenodd" d="M9.29289 18.7071C8.90237 18.3166 8.90237 17.6834 9.29289 17.2929L14.5858 12L9.29289 6.70711C8.90237 6.31658 8.90237 5.68342 9.29289 5.29289C9.68342 4.90237 10.3166 4.90237 10.7071 5.29289L16.7071 11.2929C17.0976 11.6834 17.0976 12.3166 16.7071 12.7071L10.7071 18.7071C10.3166 19.0976 9.68342 19.0976 9.29289 18.7071Z" fill="#252733"/>
</g>

<g transform="translate(24,48)">
<path fill-rule="evenodd" clip-rule="evenodd" d="M9.29289 18.7071C8.90237 18.3166 8.90237 17.6834 9.29289 17.2929L14.5858 12L9.29289 6.70711C8.90237 6.31658 8.90237 5.68342 9.29289 5.29289C9.68342 4.90237 10.3166 4.90237 10.7071 5.29289L16.7071 11.2929C17.0976 11.6834 17.0976 12.3166 16.7071 12.7071L10.7071 18.7071C10.3166 19.0976 9.68342 19.0976 9.29289 18.7071Z" fill="#EBECF0"/>
</g>

<g transform="translate(0,72)">
  <path fill-rule="evenodd" clip-rule="evenodd" d="M13 5C13 4.44772 12.5523 4 12 4C11.4477 4 11 4.44772 11 5V11H5C4.44772 11 4 11.4477 4 12C4 12.5523 4.44772 13 5 13H11V19C11 19.5523 11.4477 20 12 20C12.5523 20 13 19.5523 13 19V13H19C19.5523 13 20 12.5523 20 12C20 11.4477 19.5523 11 19 11H13V5Z" fill="#252733"/>
</g>

<g transform="translate(24,72)">
<path fill-rule="evenodd" clip-rule="evenodd" d="M13 5C13 4.44772 12.5523 4 12 4C11.4477 4 11 4.44772 11 5V11H5C4.44772 11 4 11.4477 4 12C4 12.5523 4.44772 13 5 13H11V19C11 19.5523 11.4477 20 12 20C12.5523 20 13 19.5523 13 19V13H19C19.5523 13 20 12.5523 20 12C20 11.4477 19.5523 11 19 11H13V5Z" fill="#EBECF0"/>
</g>


<g transform="translate(0,96)">
  <path d="M12 5C19.1407 5 22.1896 10.451 22.9109 12C22.1896 13.549 19.1407 19 12 19C4.85927 19 1.81044 13.549 1.08912 12C1.81044 10.451 4.85927 5 12 5Z" stroke="black" stroke-width="2"/>
  <circle cx="12" cy="12" r="4" fill="black"/>
</g>

<g transform="translate(24,96)">
<path d="M12 5C19.1407 5 22.1896 10.451 22.9109 12C22.1896 13.549 19.1407 19 12 19C4.85927 19 1.81044 13.549 1.08912 12C1.81044 10.451 4.85927 5 12 5Z" stroke="white" stroke-width="2"/>
<circle cx="12" cy="12" r="4" fill="white"/>
</g>

<g transform="translate(0,120)">
  <path d="M14 5C14 3.89543 13.1046 3 12 3C10.8954 3 10 3.89543 10 5C10 6.10457 10.8954 7 12 7C13.1046 7 14 6.10457 14 5Z" fill="#252733"/>
  <path d="M12 10C13.1046 10 14 10.8954 14 12C14 13.1046 13.1046 14 12 14C10.8954 14 10 13.1046 10 12C10 10.8954 10.8954 10 12 10Z" fill="#252733"/>
  <path d="M12 17C13.1046 17 14 17.8954 14 19C14 20.1046 13.1046 21 12 21C10.8954 21 10 20.1046 10 19C10 17.8954 10.8954 17 12 17Z" fill="#252733"/>
</g>

<g transform="translate(24,120)">
<path d="M14 5C14 3.89543 13.1046 3 12 3C10.8954 3 10 3.89543 10 5C10 6.10457 10.8954 7 12 7C13.1046 7 14 6.10457 14 5Z" fill="#EBECF0"/>
<path d="M12 10C13.1046 10 14 10.8954 14 12C14 13.1046 13.1046 14 12 14C10.8954 14 10 13.1046 10 12C10 10.8954 10.8954 10 12 10Z" fill="#EBECF0"/>
<path d="M12 17C13.1046 17 14 17.8954 14 19C14 20.1046 13.1046 21 12 21C10.8954 21 10 20.1046 10 19C10 17.8954 10.8954 17 12 17Z" fill="#EBECF0"/>
</g>

<g transform="translate(0,144)">
  <path d="M12 20.9995C9.5 20.9995 7.375 20.1245 5.625 18.3745C3.875 16.6245 3 14.4995 3 11.9995C3 9.49952 3.875 7.37452 5.625 5.62452C6.29488 4.95464 7.0197 4.41298 7.79947 3.99952C8.73799 3.50189 9.77544 3.1892 10.8356 3.06059C11.7458 2.95018 12.1399 4.17589 11.7125 4.98702C11.3042 5.76202 11.1 6.59952 11.1 7.49952C11.1 8.99952 11.625 10.2745 12.675 11.3245C13.725 12.3745 15 12.8995 16.5 12.8995C17.4167 12.8995 18.2583 12.6954 19.025 12.287C19.831 11.8577 21.0492 12.2473 20.9404 13.154C20.8217 14.1433 20.5429 15.1129 20.1029 15.9995C19.6779 16.8559 19.102 17.6476 18.375 18.3745C16.625 20.1245 14.5 20.9995 12 20.9995ZM12 18.9995C13.4667 18.9995 14.7833 18.5954 15.95 17.787C17.1167 16.9787 17.9667 15.9245 18.5 14.6245C18.1667 14.7079 17.8333 14.7745 17.5 14.8245C17.1667 14.8745 16.8333 14.8995 16.5 14.8995C14.45 14.8995 12.7042 14.1787 11.2625 12.737C9.82083 11.2954 9.1 9.54952 9.1 7.49952C9.1 7.16618 9.125 6.83285 9.175 6.49952C9.225 6.16619 9.29167 5.83285 9.375 5.49952C8.075 6.03285 7.02083 6.88285 6.2125 8.04952C5.40417 9.21619 5 10.5329 5 11.9995C5 13.9329 5.68333 15.5829 7.05 16.9495C8.41667 18.3162 10.0667 18.9995 12 18.9995Z" fill="#252733"/>
</g>

<g transform="translate(24,144)">
  <path d="M12 15C12.8333 15 13.5417 14.7083 14.125 14.125C14.7083 13.5417 15 12.8333 15 12C15 11.1667 14.7083 10.4583 14.125 9.875C13.5417 9.29167 12.8333 9 12 9C11.1667 9 10.4583 9.29167 9.875 9.875C9.29167 10.4583 9 11.1667 9 12C9 12.8333 9.29167 13.5417 9.875 14.125C10.4583 14.7083 11.1667 15 12 15ZM12 17C10.6167 17 9.4375 16.5125 8.4625 15.5375C7.4875 14.5625 7 13.3833 7 12C7 10.6167 7.4875 9.4375 8.4625 8.4625C9.4375 7.4875 10.6167 7 12 7C13.3833 7 14.5625 7.4875 15.5375 8.4625C16.5125 9.4375 17 10.6167 17 12C17 13.3833 16.5125 14.5625 15.5375 15.5375C14.5625 16.5125 13.3833 17 12 17ZM2 13C1.71667 13 1.47917 12.9042 1.2875 12.7125C1.09583 12.5208 1 12.2833 1 12C1 11.7167 1.09583 11.4792 1.2875 11.2875C1.47917 11.0958 1.71667 11 2 11H4C4.28333 11 4.52083 11.0958 4.7125 11.2875C4.90417 11.4792 5 11.7167 5 12C5 12.2833 4.90417 12.5208 4.7125 12.7125C4.52083 12.9042 4.28333 13 4 13H2ZM20 13C19.7167 13 19.4792 12.9042 19.2875 12.7125C19.0958 12.5208 19 12.2833 19 12C19 11.7167 19.0958 11.4792 19.2875 11.2875C19.4792 11.0958 19.7167 11 20 11H22C22.2833 11 22.5208 11.0958 22.7125 11.2875C22.9042 11.4792 23 11.7167 23 12C23 12.2833 22.9042 12.5208 22.7125 12.7125C22.5208 12.9042 22.2833 13 22 13H20ZM12 5C11.7167 5 11.4792 4.90417 11.2875 4.7125C11.0958 4.52083 11 4.28333 11 4V2C11 1.71667 11.0958 1.47917 11.2875 1.2875C11.4792 1.09583 11.7167 1 12 1C12.2833 1 12.5208 1.09583 12.7125 1.2875C12.9042 1.47917 13 1.71667 13 2V4C13 4.28333 12.9042 4.52083 12.7125 4.7125C12.5208 4.90417 12.2833 5 12 5ZM12 23C11.7167 23 11.4792 22.9042 11.2875 22.7125C11.0958 22.5208 11 22.2833 11 22V20C11 19.7167 11.0958 19.4792 11.2875 19.2875C11.4792 19.0958 11.7167 19 12 19C12.2833 19 12.5208 19.0958 12.7125 19.2875C12.9042 19.4792 13 19.7167 13 20V22C13 22.2833 12.9042 22.5208 12.7125 22.7125C12.5208 22.9042 12.2833 23 12 23ZM5.65 7.05L4.575 6C4.375 5.81667 4.27917 5.58333 4.2875 5.3C4.29583 5.01667 4.39167 4.775 4.575 4.575C4.775 4.375 5.01667 4.275 5.3 4.275C5.58333 4.275 5.81667 4.375 6 4.575L7.05 5.65C7.23333 5.85 7.325 6.08333 7.325 6.35C7.325 6.61667 7.23333 6.85 7.05 7.05C6.86667 7.25 6.6375 7.34583 6.3625 7.3375C6.0875 7.32917 5.85 7.23333 5.65 7.05ZM18 19.425L16.95 18.35C16.7667 18.15 16.675 17.9125 16.675 17.6375C16.675 17.3625 16.7667 17.1333 16.95 16.95C17.1333 16.75 17.3625 16.6542 17.6375 16.6625C17.9125 16.6708 18.15 16.7667 18.35 16.95L19.425 18C19.625 18.1833 19.7208 18.4167 19.7125 18.7C19.7042 18.9833 19.6083 19.225 19.425 19.425C19.225 19.625 18.9833 19.725 18.7 19.725C18.4167 19.725 18.1833 19.625 18 19.425ZM16.95 7.05C16.75 6.86667 16.6542 6.6375 16.6625 6.3625C16.6708 6.0875 16.7667 5.85 16.95 5.65L18 4.575C18.1833 4.375 18.4167 4.27917 18.7 4.2875C18.9833 4.29583 19.225 4.39167 19.425 4.575C19.625 4.775 19.725 5.01667 19.725 5.3C19.725 5.58333 19.625 5.81667 19.425 6L18.35 7.05C18.15 7.23333 17.9167 7.325 17.65 7.325C17.3833 7.325 17.15 7.23333 16.95 7.05ZM4.575 19.425C4.375 19.225 4.275 18.9833 4.275 18.7C4.275 18.4167 4.375 18.1833 4.575 18L5.65 16.95C5.85 16.7667 6.0875 16.675 6.3625 16.675C6.6375 16.675 6.86667 16.7667 7.05 16.95C7.25 17.1333 7.34583 17.3625 7.3375 17.6375C7.32917 17.9125 7.23333 18.15 7.05 18.35L6 19.425C5.81667 19.625 5.58333 19.7208 5.3 19.7125C5.01667 19.7042 4.775 19.6083 4.575 19.425Z" fill="#EBECF0"/>
</g>

<g transform="translate(0, 168)">
  <path fill-rule="evenodd" clip-rule="evenodd" d="M14.7071 5.29289C14.3166 4.90237 13.6834 4.90237 13.2929 5.29289L7.29289 11.2929C6.90237 11.6834 6.90237 12.3166 7.29289 12.7071L13.2929 18.7071C13.6834 19.0976 14.3166 19.0976 14.7071 18.7071C15.0976 18.3166 15.0976 17.6834 14.7071 17.2929L10.4142 13H22C22.5523 13 23 12.5523 23 12C23 11.4477 22.5523 11 22 11H10.4142L14.7071 6.70711C15.0976 6.31658 15.0976 5.68342 14.7071 5.29289ZM3 18C3 18.5 3.44772 19 4 19C4.55229 19 5 18.5 5 18V6C5 5.5 4.55228 5 4 5C3.44771 5 3 5.5 3 6V18Z" fill="#252733"/>
</g>

<g transform="translate(24, 168)">
<path fill-rule="evenodd" clip-rule="evenodd" d="M14.7071 5.29289C14.3166 4.90237 13.6834 4.90237 13.2929 5.29289L7.29289 11.2929C6.90237 11.6834 6.90237 12.3166 7.29289 12.7071L13.2929 18.7071C13.6834 19.0976 14.3166 19.0976 14.7071 18.7071C15.0976 18.3166 15.0976 17.6834 14.7071 17.2929L10.4142 13H22C22.5523 13 23 12.5523 23 12C23 11.4477 22.5523 11 22 11H10.4142L14.7071 6.70711C15.0976 6.31658 15.0976 5.68342 14.7071 5.29289ZM3 18C3 18.5 3.44772 19 4 19C4.55229 19 5 18.5 5 18V6C5 5.5 4.55228 5 4 5C3.44771 5 3 5.5 3 6V18Z" fill="#EBECF0"/>
</g>

<g transform="translate(0, 192)">
  <path fill-rule="evenodd" clip-rule="evenodd" d="M12 2C10.1482 2 8.33271 2.51421 6.75594 3.48532C5.17916 4.45643 3.90301 5.8463 3.0697 7.50005C2.23638 9.15379 1.87864 11.0064 2.03633 12.8515C2.1806 14.5397 2.75114 16.1608 3.69104 17.5643L3.68993 17.565C3.7161 17.6033 3.74303 17.642 3.77061 17.6813C3.83313 17.7718 3.8972 17.8615 3.96281 17.9501L3.96362 17.9495C4.29154 18.3955 4.67382 18.8731 4.99259 19.2612C5.20192 19.5161 5.38917 19.7387 5.52417 19.8977L5.61125 20H3C2.44772 20 2 20.4477 2 21C2 21.5523 2.44772 22 3 22H8C8.55228 22 9 21.5523 9 21V16C9 15.4477 8.55228 15 8 15C7.44772 15 7 15.4477 7 16V18.5457C6.87556 18.3987 6.71488 18.207 6.53804 17.9917C6.16045 17.532 5.72685 16.986 5.41256 16.5393C4.62507 15.3966 4.14751 14.0671 4.02906 12.6812C3.90291 11.2052 4.18911 9.72303 4.85576 8.40004C5.52241 7.07704 6.54333 5.96515 7.80475 5.18826C9.06617 4.41137 10.5185 4 12 4V2ZM20.2302 6.31985C20.1666 6.22773 20.1014 6.13658 20.0346 6.04645L20.0338 6.04705C19.7065 5.60198 19.3254 5.12586 19.0074 4.7388C18.7981 4.48395 18.6108 4.26132 18.4758 4.10229L18.3887 4H21C21.5523 4 22 3.55228 22 3C22 2.44772 21.5523 2 21 2H16C15.4477 2 15 2.44772 15 3V8C15 8.55228 15.4477 9 16 9C16.5523 9 17 8.55228 17 8V5.45428C17.1244 5.60134 17.2851 5.79299 17.462 6.00827C17.8398 6.46824 18.2737 7.01472 18.588 7.46151C19.3747 8.60336 19.8519 9.93154 19.9707 11.3162C20.0974 12.7925 19.8115 14.275 19.145 15.5984C18.4785 16.9218 17.4576 18.0341 16.196 18.8113C14.9344 19.5885 13.4818 20 12 20V22C13.8522 22 15.668 21.4856 17.245 20.5141C18.822 19.5426 20.0982 18.1523 20.9313 16.498C21.7644 14.8438 22.1217 12.9906 21.9634 11.1452C21.8187 9.45824 21.2482 7.83829 20.309 6.43572L20.3101 6.43497C20.2841 6.39712 20.2575 6.35872 20.2302 6.31985Z" fill="#252733"/>
</g>

<g transform="translate(24, 192)">
  <path fill-rule="evenodd" clip-rule="evenodd" d="M12 2C10.1482 2 8.33271 2.51421 6.75594 3.48532C5.17916 4.45643 3.90301 5.8463 3.0697 7.50005C2.23638 9.15379 1.87864 11.0064 2.03633 12.8515C2.1806 14.5397 2.75114 16.1608 3.69104 17.5643L3.68993 17.565C3.7161 17.6033 3.74303 17.642 3.77061 17.6813C3.83313 17.7718 3.8972 17.8615 3.96281 17.9501L3.96362 17.9495C4.29154 18.3955 4.67382 18.8731 4.99259 19.2612C5.20192 19.5161 5.38917 19.7387 5.52417 19.8977L5.61125 20H3C2.44772 20 2 20.4477 2 21C2 21.5523 2.44772 22 3 22H8C8.55228 22 9 21.5523 9 21V16C9 15.4477 8.55228 15 8 15C7.44772 15 7 15.4477 7 16V18.5457C6.87556 18.3987 6.71488 18.207 6.53804 17.9917C6.16045 17.532 5.72685 16.986 5.41256 16.5393C4.62507 15.3966 4.14751 14.0671 4.02906 12.6812C3.90291 11.2052 4.18911 9.72303 4.85576 8.40004C5.52241 7.07704 6.54333 5.96515 7.80475 5.18826C9.06617 4.41137 10.5185 4 12 4V2ZM20.2302 6.31985C20.1666 6.22773 20.1014 6.13658 20.0346 6.04645L20.0338 6.04705C19.7065 5.60198 19.3254 5.12586 19.0074 4.7388C18.7981 4.48395 18.6108 4.26132 18.4758 4.10229L18.3887 4H21C21.5523 4 22 3.55228 22 3C22 2.44772 21.5523 2 21 2H16C15.4477 2 15 2.44772 15 3V8C15 8.55228 15.4477 9 16 9C16.5523 9 17 8.55228 17 8V5.45428C17.1244 5.60134 17.2851 5.79299 17.462 6.00827C17.8398 6.46824 18.2737 7.01472 18.588 7.46151C19.3747 8.60336 19.8519 9.93154 19.9707 11.3162C20.0974 12.7925 19.8115 14.275 19.145 15.5984C18.4785 16.9218 17.4576 18.0341 16.196 18.8113C14.9344 19.5885 13.4818 20 12 20V22C13.8522 22 15.668 21.4856 17.245 20.5141C18.822 19.5426 20.0982 18.1523 20.9313 16.498C21.7644 14.8438 22.1217 12.9906 21.9634 11.1452C21.8187 9.45824 21.2482 7.83829 20.309 6.43572L20.3101 6.43497C20.2841 6.39712 20.2575 6.35872 20.2302 6.31985Z" fill="#EBECF0"/>
</g>

<g transform="translate(0, 216)">
  <path fill-rule="evenodd" clip-rule="evenodd" d="M18.4142 3.99985C17.6332 3.2188 16.3669 3.2188 15.5858 3.99985L13.0858 6.49985L17.5 10.9141L20 8.41406C20.7811 7.63301 20.7811 6.36668 20 5.58564L18.4142 3.99985ZM17.5 8.08564L15.9142 6.49985L17 5.41406L18.5858 6.99985L17.5 8.08564ZM16.4142 11.9998L12 7.58563L3 16.5856V20.9998H7.41421L16.4142 11.9998ZM5 18.9998V17.4141L12 10.4141L13.5858 11.9998L6.58579 18.9998H5Z" fill="#252733"/>
</g>

<g transform="translate(24, 216)">
  <path fill-rule="evenodd" clip-rule="evenodd" d="M18.4142 3.99985C17.6332 3.2188 16.3669 3.2188 15.5858 3.99985L13.0858 6.49985L17.5 10.9141L20 8.41406C20.7811 7.63301 20.7811 6.36668 20 5.58564L18.4142 3.99985ZM17.5 8.08564L15.9142 6.49985L17 5.41406L18.5858 6.99985L17.5 8.08564ZM16.4142 11.9998L12 7.58563L3 16.5856V20.9998H7.41421L16.4142 11.9998ZM5 18.9998V17.4141L12 10.4141L13.5858 11.9998L6.58579 18.9998H5Z" fill="#EBECF0"/>
</g>

<g transform="translate(0, 240)">
  <path fill-rule="evenodd" clip-rule="evenodd" d="M9 4V2H15V4H20H21V6H20V18C20 19.6569 18.6569 21 17 21H7C5.34315 21 4 19.6569 4 18V6H3V4H4H9ZM6 6V18C6 18.5523 6.44772 19 7 19H17C17.5523 19 18 18.5523 18 18V6H6ZM9 8L9 17H11L11 8H9ZM13 17V8H15V17H13Z" fill="#252733"/>
</g>

<g transform="translate(24, 240)">
  <path fill-rule="evenodd" clip-rule="evenodd" d="M9 4V2H15V4H20H21V6H20V18C20 19.6569 18.6569 21 17 21H7C5.34315 21 4 19.6569 4 18V6H3V4H4H9ZM6 6V18C6 18.5523 6.44772 19 7 19H17C17.5523 19 18 18.5523 18 18V6H6ZM9 8L9 17H11L11 8H9ZM13 17V8H15V17H13Z" fill="#EBECF0"/>
</g>

<g  transform="translate(0, 264)">
  <path fill-rule="evenodd" clip-rule="evenodd" d="M7 2C5.34315 2 4 3.34315 4 5V19C4 20.6569 5.34315 22 7 22H17C18.6569 22 20 20.6569 20 19V18H18V19C18 19.5523 17.5523 20 17 20H7C6.44772 20 6 19.5523 6 19V5C6 4.44772 6.44772 4 7 4H17C17.5523 4 18 4.44772 18 5V6H20V5C20 3.34315 18.6569 2 17 2H7ZM15.7071 7.29289C15.3166 6.90237 14.6834 6.90237 14.2929 7.29289C13.9024 7.68342 13.9024 8.31658 14.2929 8.70711L16.5858 11H9C8.44772 11 8 11.4477 8 12C8 12.5523 8.44772 13 9 13H16.5858L14.2929 15.2929C13.9024 15.6834 13.9024 16.3166 14.2929 16.7071C14.6834 17.0976 15.3166 17.0976 15.7071 16.7071L20.4142 12L15.7071 7.29289Z" fill="#252733"/>
</g>

<g  transform="translate(24, 264)">
  <path fill-rule="evenodd" clip-rule="evenodd" d="M7 2C5.34315 2 4 3.34315 4 5V19C4 20.6569 5.34315 22 7 22H17C18.6569 22 20 20.6569 20 19V18H18V19C18 19.5523 17.5523 20 17 20H7C6.44772 20 6 19.5523 6 19V5C6 4.44772 6.44772 4 7 4H17C17.5523 4 18 4.44772 18 5V6H20V5C20 3.34315 18.6569 2 17 2H7ZM15.7071 7.29289C15.3166 6.90237 14.6834 6.90237 14.2929 7.29289C13.9024 7.68342 13.9024 8.31658 14.2929 8.70711L16.5858 11H9C8.44772 11 8 11.4477 8 12C8 12.5523 8.44772 13 9 13H16.5858L14.2929 15.2929C13.9024 15.6834 13.9024 16.3166 14.2929 16.7071C14.6834 17.0976 15.3166 17.0976 15.7071 16.7071L20.4142 12L15.7071 7.29289Z" fill="#EBECF0"/>
</g>

<g  transform="translate(0, 288)">
<path fill-rule="evenodd" clip-rule="evenodd" d="M2 6C2 5.44772 2.44772 5 3 5H21C21.5523 5 22 5.44772 22 6C22 6.55228 21.5523 7 21 7H3C2.44772 7 2 6.55228 2 6ZM5 9C4.44772 9 4 9.44772 4 10C4 10.5523 4.44772 11 5 11H19C19.5523 11 20 10.5523 20 10C20 9.44772 19.5523 9 19 9H5ZM8 13C7.44772 13 7 13.4477 7 14C7 14.5523 7.44772 15 8 15H16C16.5523 15 17 14.5523 17 14C17 13.4477 16.5523 13 16 13H8ZM10 17C9.44772 17 9 17.4477 9 18C9 18.5523 9.44772 19 10 19H14C14.5523 19 15 18.5523 15 18C15 17.4477 14.5523 17 14 17H10Z" fill="#252733"/>
</g>

<g  transform="translate(24, 288)">
<path fill-rule="evenodd" clip-rule="evenodd" d="M2 6C2 5.44772 2.44772 5 3 5H21C21.5523 5 22 5.44772 22 6C22 6.55228 21.5523 7 21 7H3C2.44772 7 2 6.55228 2 6ZM5 9C4.44772 9 4 9.44772 4 10C4 10.5523 4.44772 11 5 11H19C19.5523 11 20 10.5523 20 10C20 9.44772 19.5523 9 19 9H5ZM8 13C7.44772 13 7 13.4477 7 14C7 14.5523 7.44772 15 8 15H16C16.5523 15 17 14.5523 17 14C17 13.4477 16.5523 13 16 13H8ZM10 17C9.44772 17 9 17.4477 9 18C9 18.5523 9.44772 19 10 19H14C14.5523 19 15 18.5523 15 18C15 17.4477 14.5523 17 14 17H10Z" fill="#EBECF0"/>
</g>

<g  transform="translate(0, 312)">
  <path fill-rule="evenodd" clip-rule="evenodd" d="M18.7071 6.70711C19.0976 6.31658 19.0976 5.68342 18.7071 5.29289C18.3166 4.90237 17.6834 4.90237 17.2929 5.29289L12 10.5858L6.70711 5.29289C6.31658 4.90237 5.68342 4.90237 5.29289 5.29289C4.90237 5.68342 4.90237 6.31658 5.29289 6.70711L10.5858 12L5.29289 17.2929C4.90237 17.6834 4.90237 18.3166 5.29289 18.7071C5.68342 19.0976 6.31658 19.0976 6.70711 18.7071L12 13.4142L17.2929 18.7071C17.6834 19.0976 18.3166 19.0976 18.7071 18.7071C19.0976 18.3166 19.0976 17.6834 18.7071 17.2929L13.4142 12L18.7071 6.70711Z" fill="#131314"/>
</g>
<g  transform="translate(24, 312)">
  <path fill-rule="evenodd" clip-rule="evenodd" d="M18.7071 6.70711C19.0976 6.31658 19.0976 5.68342 18.7071 5.29289C18.3166 4.90237 17.6834 4.90237 17.2929 5.29289L12 10.5858L6.70711 5.29289C6.31658 4.90237 5.68342 4.90237 5.29289 5.29289C4.90237 5.68342 4.90237 6.31658 5.29289 6.70711L10.5858 12L5.29289 17.2929C4.90237 17.6834 4.90237 18.3166 5.29289 18.7071C5.68342 19.0976 6.31658 19.0976 6.70711 18.7071L12 13.4142L17.2929 18.7071C17.6834 19.0976 18.3166 19.0976 18.7071 18.7071C19.0976 18.3166 19.0976 17.6834 18.7071 17.2929L13.4142 12L18.7071 6.70711Z" fill="#EBECF0"/>
</g>

</svg>
