<svg width="24" height="120" viewBox="0 0 24 120" fill="none" xmlns="http://www.w3.org/2000/svg">
<mask id="mask0_1_1962" style="mask-type:alpha" maskUnits="userSpaceOnUse" x="0" y="0" width="24" height="24">
<rect width="24" height="24" fill="#D9D9D9"/>
</mask>
<g mask="url(#mask0_1_1962)">
<path d="M5 21C4.45 21 3.97917 20.8042 3.5875 20.4125C3.19583 20.0208 3 19.55 3 19C3 18.45 3.19583 17.9792 3.5875 17.5875C3.97917 17.1958 4.45 17 5 17C5.55 17 6.02083 17.1958 6.4125 17.5875C6.80417 17.9792 7 18.45 7 19C7 19.55 6.80417 20.0208 6.4125 20.4125C6.02083 20.8042 5.55 21 5 21ZM17 21C17 19.05 16.6333 17.2292 15.9 15.5375C15.1667 13.8458 14.1667 12.3667 12.9 11.1C11.6333 9.83333 10.1542 8.83333 8.4625 8.1C6.77083 7.36667 4.95 7 3 7V4C5.36667 4 7.575 4.44167 9.625 5.325C11.675 6.20833 13.475 7.425 15.025 8.975C16.575 10.525 17.7917 12.325 18.675 14.375C19.5583 16.425 20 18.6333 20 21H17ZM11 21C11 19.8833 10.7917 18.8458 10.375 17.8875C9.95833 16.9292 9.38333 16.0833 8.65 15.35C7.91667 14.6167 7.07083 14.0417 6.1125 13.625C5.15417 13.2083 4.11667 13 3 13V10C4.53333 10 5.9625 10.2875 7.2875 10.8625C8.6125 11.4375 9.775 12.225 10.775 13.225C11.775 14.225 12.5625 15.3875 13.1375 16.7125C13.7125 18.0375 14 19.4667 14 21H11Z" fill="#1C1B1F"/>
</g>

<g transform="translate(0,24)">
  <path fill-rule="evenodd" clip-rule="evenodd" d="M12 3C7.02944 3 3 7.02944 3 12C3 13.7013 3.47205 15.2923 4.29233 16.6493L4.46447 16.4645C5.40215 15.5268 6.67392 15 8 15H16C17.3261 15 18.5979 15.5268 19.5355 16.4645L19.7077 16.6493C20.5279 15.2923 21 13.7013 21 12C21 7.02944 16.9706 3 12 3ZM18.4407 18.2863L18.1213 17.8787C17.5587 17.3161 16.7956 17 16 17H8C7.20435 17 6.44129 17.3161 5.87868 17.8787L5.55928 18.2863C7.19365 19.9605 9.47544 21 12 21C14.5246 21 16.8063 19.9605 18.4407 18.2863ZM1 12C1 5.92487 5.92487 1 12 1C18.0751 1 23 5.92487 23 12C23 18.0751 18.0751 23 12 23C5.92487 23 1 18.0751 1 12ZM12 11C13.1046 11 14 10.1046 14 9C14 7.89543 13.1046 7 12 7C10.8954 7 9.99999 7.89543 9.99999 9C9.99999 10.1046 10.8954 11 12 11ZM12 13C14.2091 13 16 11.2091 16 9C16 6.79086 14.2091 5 12 5C9.79085 5 7.99999 6.79086 7.99999 9C7.99999 11.2091 9.79085 13 12 13Z" fill="#252733"/>
</g>
<g transform="translate(0,48)">
  <path fill-rule="evenodd" clip-rule="evenodd" d="M9.29289 18.7071C8.90237 18.3166 8.90237 17.6834 9.29289 17.2929L14.5858 12L9.29289 6.70711C8.90237 6.31658 8.90237 5.68342 9.29289 5.29289C9.68342 4.90237 10.3166 4.90237 10.7071 5.29289L16.7071 11.2929C17.0976 11.6834 17.0976 12.3166 16.7071 12.7071L10.7071 18.7071C10.3166 19.0976 9.68342 19.0976 9.29289 18.7071Z" fill="#252733"/>
</g>
<g transform="translate(0,72)">
  <path fill-rule="evenodd" clip-rule="evenodd" d="M13 5C13 4.44772 12.5523 4 12 4C11.4477 4 11 4.44772 11 5V11H5C4.44772 11 4 11.4477 4 12C4 12.5523 4.44772 13 5 13H11V19C11 19.5523 11.4477 20 12 20C12.5523 20 13 19.5523 13 19V13H19C19.5523 13 20 12.5523 20 12C20 11.4477 19.5523 11 19 11H13V5Z" fill="#252733"/>
</g>
<g transform="translate(0,96)">
  <path d="M12 5C19.1407 5 22.1896 10.451 22.9109 12C22.1896 13.549 19.1407 19 12 19C4.85927 19 1.81044 13.549 1.08912 12C1.81044 10.451 4.85927 5 12 5Z" stroke="black" stroke-width="2"/>
  <circle cx="12" cy="12" r="4" fill="black"/>
</g>
</svg>
