<svg width="20" height="40" viewBox="0 0 20 40" fill="none" xmlns="http://www.w3.org/2000/svg">

<path fill-rule="evenodd" clip-rule="evenodd" d="M11.4142 0.833496C10.7726 0.833496 10.1734 1.15416 9.8175 1.68802L8.56467 3.56726C8.53423 3.61292 8.49936 3.65547 8.46055 3.69427L6.80948 5.34534C6.43542 5.71941 6.15944 6.17322 5.9981 6.66683H2.6665C2.11422 6.66683 1.6665 7.11454 1.6665 7.66683V16.5002C1.6665 17.0524 2.11422 17.5002 2.6665 17.5002H6.49984C6.87829 17.5002 7.20763 17.2899 7.37747 16.9799C7.89436 17.3093 8.50814 17.5002 9.1665 17.5002H14.5245C15.3604 17.5002 16.141 17.0824 16.6047 16.3869L17.5781 14.9267C17.7743 14.6324 17.9058 14.2999 17.964 13.951L18.2922 11.9815C18.3021 11.9225 18.3182 11.8646 18.3405 11.809L18.9877 10.191C19.1058 9.8957 19.1665 9.58057 19.1665 9.26253V8.3335C19.1665 6.95278 18.0472 5.8335 16.6665 5.8335H12.406L13.2168 3.81778C13.2939 3.58659 13.3332 3.34449 13.3332 3.1008V2.75248C13.3332 1.69265 12.474 0.833496 11.4142 0.833496ZM7.49984 14.1668C7.49984 15.0873 8.24603 15.8335 9.1665 15.8335H14.5245C14.8032 15.8335 15.0633 15.6942 15.2179 15.4624L16.1914 14.0022C16.2568 13.9041 16.3006 13.7933 16.32 13.677L16.6482 11.7075C16.6778 11.5303 16.7263 11.3569 16.793 11.1901L17.4402 9.57202C17.4796 9.47358 17.4998 9.36854 17.4998 9.26253V8.3335C17.4998 7.87326 17.1267 7.50016 16.6665 7.50016H11.525C10.83 7.50016 10.3469 6.80875 10.586 6.15619L11.6357 3.29073C11.6561 3.22949 11.6665 3.16535 11.6665 3.1008V2.75248C11.6665 2.61313 11.5535 2.50016 11.4142 2.50016C11.3298 2.50016 11.251 2.54232 11.2043 2.61252L9.95142 4.49176C9.8601 4.62874 9.75547 4.75637 9.63906 4.87278L7.98799 6.52385C7.67543 6.83641 7.49984 7.26033 7.49984 7.70236V14.1668ZM5.83317 8.3335H3.33317V15.8335H5.83317V14.1668V8.3335Z" fill="#187A18"/>

<g transform="translate(0, 20)">
  <path fill-rule="evenodd" clip-rule="evenodd" d="M8.58581 19.1665C9.22743 19.1665 9.82659 18.8458 10.1825 18.312L11.4353 16.4327C11.4658 16.3871 11.5006 16.3445 11.5394 16.3057L13.1905 14.6547C13.5646 14.2806 13.8406 13.8268 14.0019 13.3332H17.3335C17.8858 13.3332 18.3335 12.8855 18.3335 12.3332V3.49984C18.3335 2.94755 17.8858 2.49984 17.3335 2.49984H13.5002C13.1217 2.49984 12.7924 2.71007 12.6225 3.02012C12.1056 2.6907 11.4919 2.49984 10.8335 2.49984H5.47547C4.63959 2.49984 3.85901 2.91759 3.39534 3.61309L2.42188 5.07328C2.22569 5.36757 2.09417 5.70014 2.03602 6.04903L1.70779 8.01846C1.69794 8.07753 1.68176 8.13536 1.65952 8.19096L1.0123 9.809C0.894184 10.1043 0.833496 10.4194 0.833496 10.7375V11.6665C0.833496 13.0472 1.95278 14.1665 3.3335 14.1665H7.59397L6.78318 16.1822C6.70612 16.4134 6.66683 16.6555 6.66683 16.8992V17.2475C6.66683 18.3073 7.52599 19.1665 8.58581 19.1665ZM14.1668 5.83137C14.1668 5.83197 14.1668 5.83257 14.1668 5.83317L14.1668 11.6665H16.6668V4.1665H14.1668V5.83137ZM12.5002 5.83137C12.4992 4.91172 11.7534 4.1665 10.8335 4.1665H5.47547C5.19684 4.1665 4.93665 4.30575 4.78209 4.53759L3.80863 5.99778C3.74324 6.09587 3.6994 6.20673 3.68001 6.32303L3.35178 8.29246C3.32224 8.46965 3.2737 8.64315 3.20698 8.80994L2.55977 10.428C2.52039 10.5264 2.50016 10.6315 2.50016 10.7375V11.6665C2.50016 12.1267 2.87326 12.4998 3.3335 12.4998H8.47504C9.17001 12.4998 9.65307 13.1912 9.41402 13.8438L8.36432 16.7093C8.3439 16.7705 8.3335 16.8346 8.3335 16.8992V17.2475C8.3335 17.3869 8.44646 17.4998 8.58581 17.4998C8.67017 17.4998 8.74895 17.4577 8.79575 17.3875L10.0486 15.5082C10.1399 15.3713 10.2445 15.2436 10.3609 15.1272L12.012 13.4761C12.3241 13.164 12.4997 12.7408 12.5002 12.2994V5.83137Z" fill="#CC0022"/>
</g>
</svg>
