<svg width="40" height="40" viewBox="0 0 40 40" fill="none" xmlns="http://www.w3.org/2000/svg">

  <path fill-rule="evenodd" clip-rule="evenodd" d="M11.4143 0.833496C10.7727 0.833496 10.1735 1.15416 9.81763 1.68802L8.56479 3.56726C8.53435 3.61292 8.49948 3.65547 8.46067 3.69427L6.8096 5.34534C6.43554 5.71941 6.15956 6.17322 5.99822 6.66683H2.66663C2.11434 6.66683 1.66663 7.11454 1.66663 7.66683V16.5002C1.66663 17.0524 2.11434 17.5002 2.66663 17.5002H6.49996C6.87841 17.5002 7.20776 17.2899 7.37759 16.9799C7.89448 17.3093 8.50826 17.5002 9.16663 17.5002H14.5247C15.3605 17.5002 16.1411 17.0824 16.6048 16.3869L17.5782 14.9267C17.7744 14.6324 17.9059 14.2999 17.9641 13.951L18.2923 11.9815C18.3022 11.9225 18.3184 11.8646 18.3406 11.809L18.9878 10.191C19.1059 9.8957 19.1666 9.58057 19.1666 9.26253V8.3335C19.1666 6.95278 18.0473 5.8335 16.6666 5.8335H12.4061L13.2169 3.81778C13.294 3.58659 13.3333 3.34449 13.3333 3.1008V2.75248C13.3333 1.69265 12.4741 0.833496 11.4143 0.833496ZM7.49996 14.1668C7.49996 15.0873 8.24615 15.8335 9.16663 15.8335H14.5247C14.8033 15.8335 15.0635 15.6942 15.218 15.4624L16.1915 14.0022C16.2569 13.9041 16.3007 13.7933 16.3201 13.677L16.6483 11.7075C16.6779 11.5303 16.7264 11.3569 16.7931 11.1901L17.4404 9.57202C17.4797 9.47358 17.5 9.36854 17.5 9.26253V8.3335C17.5 7.87326 17.1269 7.50016 16.6666 7.50016H11.5251C10.8301 7.50016 10.3471 6.80875 10.5861 6.15619L11.6358 3.29073C11.6562 3.22949 11.6666 3.16535 11.6666 3.1008V2.75248C11.6666 2.61313 11.5537 2.50016 11.4143 2.50016C11.33 2.50016 11.2512 2.54232 11.2044 2.61252L9.95154 4.49176C9.86022 4.62874 9.7556 4.75637 9.63919 4.87278L7.98811 6.52385C7.67555 6.83641 7.49996 7.26033 7.49996 7.70236V14.1668ZM5.83329 8.3335H3.33329V15.8335H5.83329V14.1668V8.3335Z" fill="#131314"/>

  <g transform="translate(20,0)">
    <path fill-rule="evenodd" clip-rule="evenodd" d="M11.4143 0.833496C10.7727 0.833496 10.1735 1.15416 9.81763 1.68802L8.56479 3.56726C8.53435 3.61292 8.49948 3.65547 8.46067 3.69427L6.8096 5.34534C6.43554 5.71941 6.15956 6.17322 5.99822 6.66683H2.66663C2.11434 6.66683 1.66663 7.11454 1.66663 7.66683V16.5002C1.66663 17.0524 2.11434 17.5002 2.66663 17.5002H6.49996C6.87841 17.5002 7.20776 17.2899 7.37759 16.9799C7.89448 17.3093 8.50826 17.5002 9.16663 17.5002H14.5247C15.3605 17.5002 16.1411 17.0824 16.6048 16.3869L17.5782 14.9267C17.7744 14.6324 17.9059 14.2999 17.9641 13.951L18.2923 11.9815C18.3022 11.9225 18.3184 11.8646 18.3406 11.809L18.9878 10.191C19.1059 9.8957 19.1666 9.58057 19.1666 9.26253V8.3335C19.1666 6.95278 18.0473 5.8335 16.6666 5.8335H12.4061L13.2169 3.81778C13.294 3.58659 13.3333 3.34449 13.3333 3.1008V2.75248C13.3333 1.69265 12.4741 0.833496 11.4143 0.833496ZM7.49996 14.1668C7.49996 15.0873 8.24615 15.8335 9.16663 15.8335H14.5247C14.8033 15.8335 15.0635 15.6942 15.218 15.4624L16.1915 14.0022C16.2569 13.9041 16.3007 13.7933 16.3201 13.677L16.6483 11.7075C16.6779 11.5303 16.7264 11.3569 16.7931 11.1901L17.4404 9.57202C17.4797 9.47358 17.5 9.36854 17.5 9.26253V8.3335C17.5 7.87326 17.1269 7.50016 16.6666 7.50016H11.5251C10.8301 7.50016 10.3471 6.80875 10.5861 6.15619L11.6358 3.29073C11.6562 3.22949 11.6666 3.16535 11.6666 3.1008V2.75248C11.6666 2.61313 11.5537 2.50016 11.4143 2.50016C11.33 2.50016 11.2512 2.54232 11.2044 2.61252L9.95154 4.49176C9.86022 4.62874 9.7556 4.75637 9.63919 4.87278L7.98811 6.52385C7.67555 6.83641 7.49996 7.26033 7.49996 7.70236V14.1668ZM5.83329 8.3335H3.33329V15.8335H5.83329V14.1668V8.3335Z" fill="#D9D9D9"/>
  </g>

  <g transform="translate(0,20)">
    <path fill-rule="evenodd" clip-rule="evenodd" d="M8.58569 19.1665C9.2273 19.1665 9.82647 18.8458 10.1824 18.312L11.4352 16.4327C11.4656 16.3871 11.5005 16.3445 11.5393 16.3057L13.1904 14.6547C13.5645 14.2806 13.8404 13.8268 14.0018 13.3332H17.3334C17.8857 13.3332 18.3334 12.8855 18.3334 12.3332V3.49984C18.3334 2.94755 17.8857 2.49984 17.3334 2.49984H13.5C13.1216 2.49984 12.7922 2.71007 12.6224 3.02012C12.1055 2.6907 11.4917 2.49984 10.8334 2.49984H5.47535C4.63946 2.49984 3.85889 2.91759 3.39522 3.61309L2.42176 5.07328C2.22556 5.36757 2.09405 5.70014 2.0359 6.04903L1.70766 8.01846C1.69782 8.07753 1.68164 8.13536 1.6594 8.19096L1.01218 9.809C0.894062 10.1043 0.833374 10.4194 0.833374 10.7375V11.6665C0.833374 13.0472 1.95266 14.1665 3.33337 14.1665H7.59385L6.78306 16.1822C6.70599 16.4134 6.66671 16.6555 6.66671 16.8992V17.2475C6.66671 18.3073 7.52586 19.1665 8.58569 19.1665ZM14.1667 5.83137C14.1667 5.83197 14.1667 5.83257 14.1667 5.83317L14.1667 11.6665H16.6667V4.1665H14.1667V5.83137ZM12.5 5.83137C12.4991 4.91172 11.7532 4.1665 10.8334 4.1665H5.47535C5.19672 4.1665 4.93653 4.30575 4.78197 4.53759L3.80851 5.99778C3.74311 6.09587 3.69928 6.20673 3.67989 6.32303L3.35165 8.29246C3.32212 8.46965 3.27358 8.64315 3.20686 8.80994L2.55964 10.428C2.52027 10.5264 2.50004 10.6315 2.50004 10.7375V11.6665C2.50004 12.1267 2.87314 12.4998 3.33337 12.4998H8.47491C9.16989 12.4998 9.65295 13.1912 9.41389 13.8438L8.3642 16.7093C8.34378 16.7705 8.33337 16.8346 8.33337 16.8992V17.2475C8.33337 17.3869 8.44634 17.4998 8.58569 17.4998C8.67005 17.4998 8.74883 17.4577 8.79562 17.3875L10.0485 15.5082C10.1398 15.3713 10.2444 15.2436 10.3608 15.1272L12.0119 13.4761C12.324 13.164 12.4996 12.7408 12.5 12.2994V5.83137Z" fill="#131314"/>
  </g>

  <g transform="translate(20,20)">
    <path fill-rule="evenodd" clip-rule="evenodd" d="M8.58569 19.1665C9.2273 19.1665 9.82647 18.8458 10.1824 18.312L11.4352 16.4327C11.4656 16.3871 11.5005 16.3445 11.5393 16.3057L13.1904 14.6547C13.5645 14.2806 13.8404 13.8268 14.0018 13.3332H17.3334C17.8857 13.3332 18.3334 12.8855 18.3334 12.3332V3.49984C18.3334 2.94755 17.8857 2.49984 17.3334 2.49984H13.5C13.1216 2.49984 12.7922 2.71007 12.6224 3.02012C12.1055 2.6907 11.4917 2.49984 10.8334 2.49984H5.47535C4.63946 2.49984 3.85889 2.91759 3.39522 3.61309L2.42176 5.07328C2.22556 5.36757 2.09405 5.70014 2.0359 6.04903L1.70766 8.01846C1.69782 8.07753 1.68164 8.13536 1.6594 8.19096L1.01218 9.809C0.894062 10.1043 0.833374 10.4194 0.833374 10.7375V11.6665C0.833374 13.0472 1.95266 14.1665 3.33337 14.1665H7.59385L6.78306 16.1822C6.70599 16.4134 6.66671 16.6555 6.66671 16.8992V17.2475C6.66671 18.3073 7.52586 19.1665 8.58569 19.1665ZM14.1667 5.83137C14.1667 5.83197 14.1667 5.83257 14.1667 5.83317L14.1667 11.6665H16.6667V4.1665H14.1667V5.83137ZM12.5 5.83137C12.4991 4.91172 11.7532 4.1665 10.8334 4.1665H5.47535C5.19672 4.1665 4.93653 4.30575 4.78197 4.53759L3.80851 5.99778C3.74311 6.09587 3.69928 6.20673 3.67989 6.32303L3.35165 8.29246C3.32212 8.46965 3.27358 8.64315 3.20686 8.80994L2.55964 10.428C2.52027 10.5264 2.50004 10.6315 2.50004 10.7375V11.6665C2.50004 12.1267 2.87314 12.4998 3.33337 12.4998H8.47491C9.16989 12.4998 9.65295 13.1912 9.41389 13.8438L8.3642 16.7093C8.34378 16.7705 8.33337 16.8346 8.33337 16.8992V17.2475C8.33337 17.3869 8.44634 17.4998 8.58569 17.4998C8.67005 17.4998 8.74883 17.4577 8.79562 17.3875L10.0485 15.5082C10.1398 15.3713 10.2444 15.2436 10.3608 15.1272L12.0119 13.4761C12.324 13.164 12.4996 12.7408 12.5 12.2994V5.83137Z" fill="#D9D9D9"/>
  </g>
</svg>
